<svg width="225" height="357" viewBox="0 0 225 357" fill="none" xmlns="http://www.w3.org/2000/svg">
<path d="M225 288.535L211.5 292L157 243L225 278.141V288.535Z" fill="#9B51E0"/>
<path d="M157.711 243L0 314.833V351L214 293.735L157.711 243Z" fill="#BB6BD9"/>
<path d="M225 288L0 350.404V357H225V288Z" fill="#8056DE"/>
<path d="M197 149H66.5C66.9917 132.122 71.1393 126.43 88 125.5C94.6655 109.753 101.583 104.521 119.5 101.5C140.532 101.828 148.316 107.518 156.5 125.5C166.568 125.051 170.88 127.739 177 136C186.355 135.254 190.852 137.657 197 149Z" fill="#9B51E0"/>
</svg>
