<svg width="228" height="355" viewBox="0 0 228 355" fill="none" xmlns="http://www.w3.org/2000/svg">
<path d="M0.5 295.5L1 355H228V275L0.5 295.5Z" fill="#5931B4"/>
<path d="M118 240.5L84 191L215.5 262L156.5 283L92.5 240.5H118Z" fill="#9F79F2"/>
<path d="M0.5 302V265.5L85 293.5L62 299L0.5 302Z" fill="#9F79F2"/>
<path d="M84 191L0.5 238.5V268L84 293.5L87.5 291.5H170L228 327V268L214 261L156.5 283L92.5 240.5H118L84 191Z" fill="#8056DE"/>
<path d="M60 88C85.2774 76.5237 94.4846 63.2108 82.5 26.5C97.0158 37.7071 102.249 56.3116 97 70.5C91.7513 84.6884 74.781 90.3763 60 88Z" fill="#9B51E0"/>
</svg>
